<svg xmlns="http://www.w3.org/2000/svg" viewBox="0 0 512 512">
  <rect width="512" height="512" rx="96" fill="#1a3c6e"/>
  <rect x="36" y="36" width="440" height="440" rx="72" fill="#f5f7fb" opacity="0.08"/>
  <path d="M140 126h148c58 0 93 28 93 75 0 31-16 53-44 64 36 10 57 35 57 72 0 53-39 85-104 85H140V126zm84 69v64h49c16 0 26-11 26-31s-10-33-26-33h-49zm0 125v70h59c19 0 31-12 31-34 0-23-12-36-31-36h-59z" fill="#f5f7fb"/>
  <text x="256" y="458" text-anchor="middle" font-family="Arial, sans-serif" font-size="54" font-weight="700" fill="#d4a017">HMS</text>
</svg>
